<svg width="191" height="83" viewBox="0 0 191 83" fill="none" xmlns="http://www.w3.org/2000/svg">
<path d="M70.5094 73.9171L70.7875 72.9215L70.7875 72.9215L70.5094 73.9171ZM189.936 68.2418C190.41 68.4925 190.596 69.1112 190.351 69.6236L186.357 77.9742C186.112 78.4866 185.53 78.6988 185.056 78.448C184.582 78.1973 184.396 77.5786 184.641 77.0662L188.191 69.6435L181.327 66.0116C180.853 65.7609 180.668 65.1422 180.913 64.6298C181.158 64.1173 181.741 63.9052 182.214 64.1559L189.936 68.2418ZM2.70935 0.435292C6.94337 23.1269 19.1943 39.8287 32.7982 51.5821C46.4097 63.342 61.3327 70.108 70.7875 72.9215L70.2314 74.9127C60.5642 72.036 45.4017 65.1557 31.5641 53.2004C17.7189 41.2386 5.15716 24.1565 0.814516 0.88266L2.70935 0.435292ZM70.7875 72.9215C89.8196 78.5851 130.289 89.638 189.2 68.1925L189.786 70.1467C130.35 91.7834 89.4433 80.6298 70.2314 74.9127L70.7875 72.9215Z" fill="#E7C4B2"/>
</svg>
