<svg width="115" height="115" viewBox="0 0 115 115" fill="none" xmlns="http://www.w3.org/2000/svg">
<path d="M56.4358 48.4805C61.9523 48.4805 66.4019 52.9598 66.4019 58.5131C66.4019 64.0665 61.9523 68.5458 56.4358 68.5458C50.9192 68.5458 46.4696 64.0665 46.4696 58.5131C46.4696 52.9598 50.9192 48.4805 56.4358 48.4805ZM56.4358 65.0357C60.0007 65.0357 62.9151 62.1106 62.9151 58.5131C62.9151 54.9157 60.0094 51.9906 56.4358 51.9906C52.8622 51.9906 49.9564 54.9157 49.9564 58.5131C49.9564 62.1106 52.8708 65.0357 56.4358 65.0357V65.0357ZM43.7374 48.0701C43.7374 49.3711 44.7782 50.4102 46.0619 50.4102C47.3543 50.4102 48.3865 49.3624 48.3865 48.0701C48.3865 46.7778 47.3456 45.73 46.0619 45.73C44.7782 45.73 43.7374 46.7778 43.7374 48.0701ZM37.1366 50.4451C37.2841 47.3105 37.9953 44.5338 40.2765 42.2461C42.549 39.9584 45.3073 39.2424 48.4212 39.0853C51.6305 38.9019 61.2497 38.9019 64.459 39.0853C67.5642 39.2337 70.3225 39.9497 72.6037 42.2374C74.8849 44.5251 75.5874 47.3017 75.7436 50.4364C75.9257 53.6671 75.9257 63.3505 75.7436 66.5812C75.5961 69.7158 74.8849 72.4925 72.6037 74.7802C70.3225 77.0679 67.5729 77.7838 64.459 77.941C61.2497 78.1244 51.6305 78.1244 48.4212 77.941C45.3073 77.7926 42.549 77.0766 40.2765 74.7802C38.004 72.4925 37.2927 69.7158 37.1366 66.5812C36.9545 63.3505 36.9545 53.6758 37.1366 50.4451V50.4451ZM41.2827 70.0476C41.9592 71.759 43.269 73.0775 44.9777 73.7673C47.5365 74.7889 53.6081 74.5531 56.4358 74.5531C59.2634 74.5531 65.3437 74.7802 67.8938 73.7673C69.5939 73.0862 70.9036 71.7678 71.5888 70.0476C72.6037 67.4718 72.3695 61.3597 72.3695 58.5131C72.3695 55.6666 72.595 49.5458 71.5888 46.9787C70.9123 45.2673 69.6025 43.9488 67.8938 43.259C65.335 42.2374 59.2634 42.4731 56.4358 42.4731C53.6081 42.4731 47.5278 42.2461 44.9777 43.259C43.2776 43.9401 41.9679 45.2585 41.2827 46.9787C40.2678 49.5545 40.502 55.6666 40.502 58.5131C40.502 61.3597 40.2678 67.4805 41.2827 70.0476Z" fill="white"/>
<circle cx="57.5" cy="57.5" r="56.5" stroke="white" stroke-width="2"/>
</svg>
