<svg width="100" height="100" viewBox="0 0 100 100" fill="none" xmlns="http://www.w3.org/2000/svg">
<circle cx="50" cy="50" r="49" stroke="white" stroke-width="2"/>
<path d="M61.7578 37.5859C58.4844 34.3047 54.125 32.5 49.4922 32.5C39.9297 32.5 32.1484 40.2812 32.1484 49.8438C32.1484 52.8984 32.9453 55.8828 34.4609 58.5156L32 67.5L41.1953 65.0859C43.7266 66.4688 46.5781 67.1953 49.4844 67.1953H49.4922C59.0469 67.1953 67 59.4141 67 49.8516C67 45.2188 65.0312 40.8672 61.7578 37.5859V37.5859ZM49.4922 64.2734C46.8984 64.2734 44.3594 63.5781 42.1484 62.2656L41.625 61.9531L36.1719 63.3828L37.625 58.0625L37.2812 57.5156C35.8359 55.2188 35.0781 52.5703 35.0781 49.8438C35.0781 41.8984 41.5469 35.4297 49.5 35.4297C53.3516 35.4297 56.9687 36.9297 59.6875 39.6562C62.4062 42.3828 64.0781 46 64.0703 49.8516C64.0703 57.8047 57.4375 64.2734 49.4922 64.2734V64.2734ZM57.3984 53.4766C56.9688 53.2578 54.8359 52.2109 54.4375 52.0703C54.0391 51.9219 53.75 51.8516 53.4609 52.2891C53.1719 52.7266 52.3438 53.6953 52.0859 53.9922C51.8359 54.2813 51.5781 54.3203 51.1484 54.1016C48.6016 52.8281 46.9297 51.8281 45.25 48.9453C44.8047 48.1797 45.6953 48.2344 46.5234 46.5781C46.6641 46.2891 46.5937 46.0391 46.4844 45.8203C46.375 45.6016 45.5078 43.4688 45.1484 42.6016C44.7969 41.7578 44.4375 41.875 44.1719 41.8594C43.9219 41.8438 43.6328 41.8438 43.3437 41.8438C43.0547 41.8438 42.5859 41.9531 42.1875 42.3828C41.7891 42.8203 40.6719 43.8672 40.6719 46C40.6719 48.1328 42.2266 50.1953 42.4375 50.4844C42.6563 50.7734 45.4922 55.1484 49.8437 57.0312C52.5937 58.2187 53.6719 58.3203 55.0469 58.1172C55.8828 57.9922 57.6094 57.0703 57.9687 56.0547C58.3281 55.0391 58.3281 54.1719 58.2188 53.9922C58.1172 53.7969 57.8281 53.6875 57.3984 53.4766Z" fill="white"/>
</svg>
